<svg xmlns="http://www.w3.org/2000/svg" width="18" height="18" viewBox="0 0 18 18" fill="none">
  <g clip-path="url(#clip0_964_46)">
    <path d="M10.5 5V3.5H7.5V5H10.5ZM3 7.25V14C3 14.4125 3.3375 14.75 3.75 14.75H14.25C14.6625 14.75 15 14.4125 15 14V7.25C15 6.8375 14.6625 6.5 14.25 6.5H3.75C3.3375 6.5 3 6.8375 3 7.25ZM15 5C15.8325 5 16.5 5.6675 16.5 6.5V14.75C16.5 15.5825 15.8325 16.25 15 16.25H3C2.1675 16.25 1.5 15.5825 1.5 14.75L1.5075 6.5C1.5075 5.6675 2.1675 5 3 5H6V3.5C6 2.6675 6.6675 2 7.5 2H10.5C11.3325 2 12 2.6675 12 3.5V5H15Z" fill="#B9BDCF"/>
  </g>
  <defs>
    <clipPath id="clip0_964_46">
      <rect width="18" height="18" fill="white"/>
    </clipPath>
  </defs>
</svg>